<svg width="64" height="64" viewBox="0 0 64 64" fill="none" xmlns="http://www.w3.org/2000/svg">
  <rect x="2" y="2" width="60" height="60" rx="16" fill="#0F1412"/>
  <rect x="2" y="2" width="60" height="60" rx="16" stroke="#313935" stroke-width="2"/>
  <path d="M24.369 42L21.347 33.648H17.497L14.539 42H10.815L19.125 20.574H23.705L32.121 42H24.369ZM18.931 29.866H20.279L21.627 26.078L22.881 22.426H23.041L24.315 26.078L25.707 29.866H27.029V32.524H18.931V29.866Z" fill="#F5F5F4"/>
  <path d="M52.44 27.65C51.7867 26.8687 51.0007 26.2727 50.082 25.862C49.1767 25.4513 48.218 25.246 47.206 25.246C45.3487 25.246 43.8827 25.8313 42.808 27.002C41.7333 28.1727 41.196 29.7227 41.196 31.652C41.196 33.5813 41.7333 35.1313 42.808 36.302C43.8827 37.4727 45.3487 38.058 47.206 38.058C48.218 38.058 49.1767 37.8527 50.082 37.442C51.0007 37.0313 51.7867 36.4353 52.44 35.654V40.36C51.804 40.844 51.0467 41.2287 50.168 41.514C49.2893 41.8127 48.3273 41.962 47.282 41.962C45.4507 41.962 43.796 41.564 42.318 40.768C40.84 39.9587 39.67 38.8313 38.808 37.386C37.9593 35.9407 37.535 34.3627 37.535 32.652C37.535 30.9413 37.9593 29.3633 38.808 27.918C39.67 26.4727 40.84 25.352 42.318 24.556C43.796 23.7467 45.4507 23.342 47.282 23.342C48.3273 23.342 49.2893 23.4913 50.168 23.79C51.0467 24.0753 51.804 24.46 52.44 24.944V27.65Z" fill="#DBC9A3"/>
</svg>
